<svg xmlns="http://www.w3.org/2000/svg" viewBox="0 0 50.471 50.471">
  <defs>
    <style>
      .cls-1, .cls-2 {
        fill: #c3ccd3;
      }

      .cls-1 {
        opacity: 0.13;
      }
    </style>
  </defs>
  <g id="Group_114" data-name="Group 114" transform="translate(-1061 -3978.765)">
    <circle id="Ellipse_7" data-name="Ellipse 7" class="cls-1" cx="25.235" cy="25.235" r="25.235" transform="translate(1061 3978.765)"/>
    <path id="Path_448" data-name="Path 448" class="cls-2" d="M11.238-17.859v3.094H9.4a1.722,1.722,0,0,0-1.359.422,1.941,1.941,0,0,0-.352,1.266v2.215h3.434l-.457,3.469H7.688V1.5H4.1V-7.395H1.113v-3.469H4.1v-2.555A4.533,4.533,0,0,1,5.32-16.8,4.423,4.423,0,0,1,8.566-18,19.386,19.386,0,0,1,11.238-17.859Z" transform="translate(1080.347 4011.064)"/>
  </g>
</svg>
