<svg xmlns="http://www.w3.org/2000/svg" viewBox="0 0 422.3 105.222">
  <defs>
    <style>
      .cls-1 {
        fill: #fff;
      }

      .cls-2 {
        fill: #dd052b;
      }
    </style>
  </defs>
  <g id="IRONMAN_Logo_neg" data-name="IRONMAN Logo_neg" transform="translate(-67.2 -47.6)">
    <g id="Layer_2" transform="translate(67.2 47.6)">
      <g id="Group_167" data-name="Group 167">
        <path id="Path_515" data-name="Path 515" class="cls-1" d="M92.237,137.794H67.2V73.3H92.237Z" transform="translate(-67.2 -32.575)"/>
        <path id="Path_516" data-name="Path 516" class="cls-1" d="M141.7,109.846a10.071,10.071,0,0,0-2.218-3.486c-1.9-2.06-3.645-2.535-4.754-3.486,2.694-1.585,4.278-2.06,6.18-5.7,2.06-4.12,2.06-9.825,1.268-14.262a13.656,13.656,0,0,0-4.278-7.448l-1.268-.951-2.06-.792-2.694-.317H85.6v64.335h25.512V111.114h2.694c4.12.634,3.169,6.022,3.169,9.825v16.8h25.354V121.414C142.171,117.611,142.963,113.332,141.7,109.846ZM115.549,95.585c-1.426.792-3.328.634-4.6.792V87.345l3.011.158,1.585.951C118.085,90.831,116.183,95.268,115.549,95.585Z" transform="translate(-56.443 -32.517)"/>
        <path id="Path_517" data-name="Path 517" class="cls-1" d="M162.861,73.3H141.468C126.89,72.986,123.4,80.91,123.4,89.625v32.643c-.317,10.3,6.655,15.688,18.065,15.529h21.392c14.9.158,18.065-6.814,18.065-15.529V89.625C180.925,80.91,177.281,72.986,162.861,73.3Zm-7.448,46.429a4.133,4.133,0,0,1-8.24,0V91.051a4.133,4.133,0,0,1,8.24,0Z" transform="translate(-34.348 -32.579)"/>
        <path id="Path_518" data-name="Path 518" class="cls-1" d="M194.8,73.3V90.731l-.951-.158L187.2,73.3H162v64.494h23.611V114.342h.792l8.557,23.452h23.928L218.729,73.3Z" transform="translate(-11.778 -32.575)"/>
        <path id="Path_519" data-name="Path 519" class="cls-1" d="M322.9,73.3V92.632L314.978,73.3H290.417l-.317,64.494h23.611v-24.72h.792l9.349,24.72h23.135V73.3Z" transform="translate(63.111 -32.575)"/>
        <path id="Path_520" data-name="Path 520" class="cls-1" d="M286.163,137.735h25.829L300.583,73.4H259.858L249.4,137.735h26.3l1.426-15.212h6.814ZM278.4,108.1l1.743-16.163h.951l1.743,16.163Z" transform="translate(39.317 -32.517)"/>
        <path id="Path_521" data-name="Path 521" class="cls-1" d="M327.1,112.632a5.229,5.229,0,1,0,5.229-5.229A5.078,5.078,0,0,0,327.1,112.632Zm1.268,0a4.12,4.12,0,1,1,4.12,4.12A4.091,4.091,0,0,1,328.368,112.632Z" transform="translate(84.742 -12.643)"/>
        <path id="Path_522" data-name="Path 522" class="cls-1" d="M330.268,109.709h1.9a.341.341,0,0,1,.317.317.792.792,0,0,1,0,.951l-.317.317h-1.743v-1.585Zm0,5.229V112.4h.792c.158,0,.158.158.317.317a9.384,9.384,0,0,1,.634.951l.792,1.426h1.268l-.634-1.268a9.091,9.091,0,0,1-.634-1.109,2.189,2.189,0,0,0-.634-.475,1.6,1.6,0,0,0,1.109-.634c.317-.317.317-.634.317-1.268,0-.317,0-.792-.317-.951a1.238,1.238,0,0,0-.634-.634,2.725,2.725,0,0,0-1.268-.158H329v6.338h1.268Z" transform="translate(85.852 -11.938)"/>
        <g id="Group_166" data-name="Group 166" transform="translate(210.595)">
          <path id="Path_523" data-name="Path 523" class="cls-2" d="M212.4,65.982a18.86,18.86,0,1,1,18.857,18.54A18.6,18.6,0,0,1,212.4,65.982Z" transform="translate(-192.909 -47.6)"/>
          <g id="Group_165" data-name="Group 165" transform="translate(0 40.725)">
            <path id="Path_524" data-name="Path 524" class="cls-2" d="M231.634,137.794l-8.715-24.086v24.086h-22.66L200.1,73.3h76.22l.158,64.494h-22.66V113.708l-8.24,24.086Z" transform="translate(-200.1 -73.3)"/>
          </g>
        </g>
      </g>
    </g>
  </g>
</svg>
