<svg xmlns="http://www.w3.org/2000/svg" viewBox="0 0 50 50">
  <defs>
    <style>
      .cls-1, .cls-2 {
        fill: #c3ccd3;
      }

      .cls-1 {
        opacity: 0.13;
      }
    </style>
  </defs>
  <g id="Group_127" data-name="Group 127" transform="translate(-734.5 -101.4)">
    <path id="XMLID_22_" class="cls-1" d="M784.5,126.4a25,25,0,1,1-25-25A25.035,25.035,0,0,1,784.5,126.4Z" transform="translate(0 0)"/>
    <path id="Path_5" data-name="Path 5" class="cls-2" d="M770.618,115.469a6.564,6.564,0,0,0-1.2-3.012A4.671,4.671,0,0,0,766.4,111.1c-4.066-.3-10.392-.3-10.392-.3h0s-6.175,0-10.392.3a4.209,4.209,0,0,0-3.012,1.355,6.565,6.565,0,0,0-1.2,3.012,49.292,49.292,0,0,0-.3,4.97v2.41a45.5,45.5,0,0,0,.3,4.97,6.565,6.565,0,0,0,1.2,3.012,5.025,5.025,0,0,0,3.313,1.355c2.41.3,10.09.3,10.09.3s6.175,0,10.392-.3a4.209,4.209,0,0,0,3.012-1.355,6.564,6.564,0,0,0,1.2-3.012,49.272,49.272,0,0,0,.3-4.97v-2.41A49.272,49.272,0,0,0,770.618,115.469Zm-9.488,5.874-7.982,4.367v-8.584l3.615,1.958Z" transform="translate(3.34 4.757)"/>
  </g>
</svg>
